<svg width="137" height="68" viewBox="0 0 137 68" fill="none" xmlns="http://www.w3.org/2000/svg">
<path d="M5.93 42.26C4.80333 42.26 3.824 42.0433 2.992 41.61C2.17733 41.1767 1.54467 40.5527 1.094 39.738C0.643333 38.9233 0.418 37.97 0.418 36.878V28.142C0.418 27.0327 0.643333 26.0793 1.094 25.282C1.54467 24.4673 2.17733 23.8433 2.992 23.41C3.824 22.9767 4.80333 22.76 5.93 22.76C7.03933 22.76 8.00133 22.9853 8.816 23.436C9.648 23.8693 10.2893 24.4933 10.74 25.308C11.1907 26.1227 11.416 27.0933 11.416 28.22H9.362C9.362 27.076 9.05867 26.192 8.452 25.568C7.84533 24.9267 7.00467 24.606 5.93 24.606C4.85533 24.606 4.006 24.918 3.382 25.542C2.77533 26.1487 2.472 27.0153 2.472 28.142V36.878C2.472 37.9873 2.77533 38.854 3.382 39.478C4.006 40.102 4.85533 40.414 5.93 40.414C7.00467 40.414 7.84533 40.102 8.452 39.478C9.05867 38.8367 9.362 37.944 9.362 36.8H11.416C11.416 37.9093 11.1907 38.88 10.74 39.712C10.2893 40.5267 9.648 41.1593 8.816 41.61C8.00133 42.0433 7.03933 42.26 5.93 42.26ZM18.2698 42.234C17.1605 42.234 16.1985 42.0173 15.3838 41.584C14.5692 41.1507 13.9365 40.5267 13.4858 39.712C13.0352 38.8973 12.8098 37.9353 12.8098 36.826V32.874C12.8098 31.7473 13.0352 30.7853 13.4858 29.988C13.9365 29.1733 14.5692 28.5493 15.3838 28.116C16.1985 27.6827 17.1605 27.466 18.2698 27.466C19.3792 27.466 20.3412 27.6827 21.1558 28.116C21.9705 28.5493 22.6032 29.1733 23.0538 29.988C23.5045 30.7853 23.7298 31.7387 23.7298 32.848V36.826C23.7298 37.9353 23.5045 38.8973 23.0538 39.712C22.6032 40.5267 21.9705 41.1507 21.1558 41.584C20.3412 42.0173 19.3792 42.234 18.2698 42.234ZM18.2698 40.388C19.3445 40.388 20.1765 40.0847 20.7658 39.478C21.3552 38.8713 21.6498 37.9873 21.6498 36.826V32.874C21.6498 31.7127 21.3465 30.8287 20.7398 30.222C20.1505 29.6153 19.3272 29.312 18.2698 29.312C17.2125 29.312 16.3805 29.6153 15.7738 30.222C15.1845 30.8287 14.8898 31.7127 14.8898 32.874V36.826C14.8898 37.9873 15.1845 38.8713 15.7738 39.478C16.3805 40.0847 17.2125 40.388 18.2698 40.388ZM25.4617 42V27.7H27.5157V30.352H28.0357L27.4637 31.106C27.4637 29.962 27.8104 29.0693 28.5037 28.428C29.2144 27.7693 30.1764 27.44 31.3897 27.44C32.811 27.44 33.9464 27.8907 34.7957 28.792C35.645 29.676 36.0697 30.8807 36.0697 32.406V42H34.0157V32.64C34.0157 31.548 33.7297 30.7073 33.1577 30.118C32.5857 29.5287 31.8057 29.234 30.8177 29.234C29.795 29.234 28.989 29.546 28.3997 30.17C27.8104 30.794 27.5157 31.678 27.5157 32.822V42H25.4617ZM37.9315 42V27.7H39.9855V30.352H40.5055L39.9335 31.106C39.9335 29.962 40.2802 29.0693 40.9735 28.428C41.6842 27.7693 42.6462 27.44 43.8595 27.44C45.2809 27.44 46.4162 27.8907 47.2655 28.792C48.1149 29.676 48.5395 30.8807 48.5395 32.406V42H46.4855V32.64C46.4855 31.548 46.1995 30.7073 45.6275 30.118C45.0555 29.5287 44.2755 29.234 43.2875 29.234C42.2649 29.234 41.4589 29.546 40.8695 30.17C40.2802 30.794 39.9855 31.678 39.9855 32.822V42H37.9315ZM55.6794 42.26C54.57 42.26 53.608 42.0433 52.7934 41.61C51.9787 41.1593 51.346 40.5267 50.8954 39.712C50.4447 38.8973 50.2194 37.9527 50.2194 36.878V32.822C50.2194 31.73 50.4447 30.7853 50.8954 29.988C51.346 29.1733 51.9787 28.5493 52.7934 28.116C53.608 27.6653 54.57 27.44 55.6794 27.44C56.7887 27.44 57.7507 27.6653 58.5654 28.116C59.38 28.5493 60.0127 29.1733 60.4634 29.988C60.914 30.7853 61.1394 31.73 61.1394 32.822V35.344H52.2474V36.878C52.2474 38.0393 52.542 38.9407 53.1314 39.582C53.738 40.206 54.5874 40.518 55.6794 40.518C56.598 40.518 57.3434 40.336 57.9154 39.972C58.5047 39.608 58.8774 39.0793 59.0334 38.386H61.0874C60.8967 39.582 60.316 40.5267 59.3454 41.22C58.3747 41.9133 57.1527 42.26 55.6794 42.26ZM59.1114 33.966V32.822C59.1114 31.6607 58.8167 30.768 58.2274 30.144C57.638 29.5027 56.7887 29.182 55.6794 29.182C54.5874 29.182 53.738 29.5027 53.1314 30.144C52.542 30.768 52.2474 31.6607 52.2474 32.822V33.732H59.3194L59.1114 33.966ZM68.2272 42.26C67.1179 42.26 66.1472 42.0433 65.3152 41.61C64.4832 41.1767 63.8332 40.5613 63.3652 39.764C62.9146 38.9493 62.6892 37.9873 62.6892 36.878V32.822C62.6892 31.7127 62.9146 30.7593 63.3652 29.962C63.8332 29.1473 64.4832 28.5233 65.3152 28.09C66.1472 27.6567 67.1179 27.44 68.2272 27.44C69.8566 27.44 71.1652 27.882 72.1532 28.766C73.1412 29.65 73.6526 30.8547 73.6872 32.38H71.6332C71.5986 31.392 71.2779 30.6293 70.6712 30.092C70.0819 29.5547 69.2672 29.286 68.2272 29.286C67.1699 29.286 66.3292 29.598 65.7052 30.222C65.0812 30.8287 64.7692 31.6953 64.7692 32.822V36.878C64.7692 37.9873 65.0812 38.854 65.7052 39.478C66.3292 40.102 67.1699 40.414 68.2272 40.414C69.2672 40.414 70.0819 40.1453 70.6712 39.608C71.2779 39.0533 71.5986 38.2907 71.6332 37.32H73.6872C73.6526 38.8453 73.1412 40.05 72.1532 40.934C71.1652 41.818 69.8566 42.26 68.2272 42.26ZM82.1791 42C80.9831 42 80.0557 41.688 79.3971 41.064C78.7384 40.4227 78.4091 39.5213 78.4091 38.36V29.572H74.3531V27.7H78.4091V23.67H80.4891V27.7H86.2351V29.572H80.4891V38.36C80.4891 39.5387 81.0524 40.128 82.1791 40.128H85.9751V42H82.1791ZM105.689 42.26C104.562 42.26 103.583 42.0433 102.751 41.61C101.936 41.1767 101.303 40.5527 100.853 39.738C100.402 38.9233 100.177 37.97 100.177 36.878V28.142C100.177 27.0327 100.402 26.0793 100.853 25.282C101.303 24.4673 101.936 23.8433 102.751 23.41C103.583 22.9767 104.562 22.76 105.689 22.76C106.798 22.76 107.76 22.9853 108.575 23.436C109.407 23.8693 110.048 24.4933 110.499 25.308C110.949 26.1227 111.175 27.0933 111.175 28.22H109.121C109.121 27.076 108.817 26.192 108.211 25.568C107.604 24.9267 106.763 24.606 105.689 24.606C104.614 24.606 103.765 24.918 103.141 25.542C102.534 26.1487 102.231 27.0153 102.231 28.142V36.878C102.231 37.9873 102.534 38.854 103.141 39.478C103.765 40.102 104.614 40.414 105.689 40.414C106.763 40.414 107.604 40.102 108.211 39.478C108.817 38.8367 109.121 37.944 109.121 36.8H111.175C111.175 37.9093 110.949 38.88 110.499 39.712C110.048 40.5267 109.407 41.1593 108.575 41.61C107.76 42.0433 106.798 42.26 105.689 42.26ZM113.063 42V40.128H116.989V24.892H113.063V23.02H122.995V24.892H119.095V40.128H122.995V42H113.063ZM130.628 42.26C129.502 42.26 128.522 42.0433 127.69 41.61C126.876 41.1767 126.243 40.5527 125.792 39.738C125.342 38.9233 125.116 37.97 125.116 36.878V28.142C125.116 27.0327 125.342 26.0793 125.792 25.282C126.243 24.4673 126.876 23.8433 127.69 23.41C128.522 22.9767 129.502 22.76 130.628 22.76C131.738 22.76 132.7 22.9853 133.514 23.436C134.346 23.8693 134.988 24.4933 135.438 25.308C135.889 26.1227 136.114 27.0933 136.114 28.22H134.06C134.06 27.076 133.757 26.192 133.15 25.568C132.544 24.9267 131.703 24.606 130.628 24.606C129.554 24.606 128.704 24.918 128.08 25.542C127.474 26.1487 127.17 27.0153 127.17 28.142V36.878C127.17 37.9873 127.474 38.854 128.08 39.478C128.704 40.102 129.554 40.414 130.628 40.414C131.703 40.414 132.544 40.102 133.15 39.478C133.757 38.8367 134.06 37.944 134.06 36.8H136.114C136.114 37.9093 135.889 38.88 135.438 39.712C134.988 40.5267 134.346 41.1593 133.514 41.61C132.7 42.0433 131.738 42.26 130.628 42.26Z" fill="#314CA5"/>
<path d="M26 20C45.7125 -6.52466 87.5583 -4.11333 109 20" stroke="url(#paint0_linear_6_193)" stroke-width="2" stroke-linecap="round"/>
<path d="M109 48C89.2875 74.5247 47.4417 72.1133 26 48" stroke="url(#paint1_linear_6_193)" stroke-width="2" stroke-linecap="round"/>
<defs>
<linearGradient id="paint0_linear_6_193" x1="26" y1="10.5" x2="109" y2="10.5" gradientUnits="userSpaceOnUse">
<stop offset="0.711" stop-color="#4561BD"/>
<stop offset="1" stop-color="#F0E63A"/>
</linearGradient>
<linearGradient id="paint1_linear_6_193" x1="109" y1="57.5" x2="26" y2="57.5" gradientUnits="userSpaceOnUse">
<stop stop-color="#4561BD"/>
<stop offset="0.29" stop-color="#F0E63A"/>
</linearGradient>
</defs>
</svg>
